<mxfile host="app.diagrams.net" agent="Mozilla/5.0 (X11; Linux x86_64) AppleWebKit/537.36 (KHTML, like Gecko) Chrome/138.0.0.0 Safari/537.36" version="28.2.0">
  <diagram name="Page-1" id="VfWNB9O1ldWDuMy6JQcJ">
    <mxGraphModel grid="1" page="1" gridSize="10" guides="1" tooltips="1" connect="1" arrows="1" fold="1" pageScale="1" pageWidth="1654" pageHeight="1169" math="0" shadow="0">
      <root>
        <mxCell id="0" />
        <mxCell id="1" parent="0" />
        <mxCell id="6SkyXPGi7nIfojy-jZ-3-8" value="" style="rounded=0;whiteSpace=wrap;html=1;" vertex="1" parent="1">
          <mxGeometry x="-160" y="-10" width="440" height="280" as="geometry" />
        </mxCell>
        <mxCell id="6SkyXPGi7nIfojy-jZ-3-6" value="" style="rounded=0;whiteSpace=wrap;html=1;" vertex="1" parent="1">
          <mxGeometry x="260" y="300" width="420" height="220" as="geometry" />
        </mxCell>
        <mxCell id="Qn9Obs42kMPu59fu0vxZ-8" style="edgeStyle=orthogonalEdgeStyle;rounded=0;orthogonalLoop=1;jettySize=auto;html=1;" edge="1" parent="1" source="Qn9Obs42kMPu59fu0vxZ-1" target="Qn9Obs42kMPu59fu0vxZ-3">
          <mxGeometry relative="1" as="geometry" />
        </mxCell>
        <mxCell id="Qn9Obs42kMPu59fu0vxZ-1" value="Data" style="sketch=0;points=[[0,0,0],[0.25,0,0],[0.5,0,0],[0.75,0,0],[1,0,0],[0,1,0],[0.25,1,0],[0.5,1,0],[0.75,1,0],[1,1,0],[0,0.25,0],[0,0.5,0],[0,0.75,0],[1,0.25,0],[1,0.5,0],[1,0.75,0]];outlineConnect=0;fontColor=#232F3E;fillColor=#7AA116;strokeColor=#ffffff;dashed=0;verticalLabelPosition=bottom;verticalAlign=top;align=center;html=1;fontSize=12;fontStyle=0;aspect=fixed;shape=mxgraph.aws4.resourceIcon;resIcon=mxgraph.aws4.s3;" vertex="1" parent="1">
          <mxGeometry x="330" y="362" width="78" height="78" as="geometry" />
        </mxCell>
        <mxCell id="Qn9Obs42kMPu59fu0vxZ-3" value="SageMaker" style="sketch=0;points=[[0,0,0],[0.25,0,0],[0.5,0,0],[0.75,0,0],[1,0,0],[0,1,0],[0.25,1,0],[0.5,1,0],[0.75,1,0],[1,1,0],[0,0.25,0],[0,0.5,0],[0,0.75,0],[1,0.25,0],[1,0.5,0],[1,0.75,0]];outlineConnect=0;fontColor=#232F3E;fillColor=#01A88D;strokeColor=#ffffff;dashed=0;verticalLabelPosition=bottom;verticalAlign=top;align=center;html=1;fontSize=12;fontStyle=0;aspect=fixed;shape=mxgraph.aws4.resourceIcon;resIcon=mxgraph.aws4.sagemaker;" vertex="1" parent="1">
          <mxGeometry x="570" y="362" width="78" height="78" as="geometry" />
        </mxCell>
        <mxCell id="Qn9Obs42kMPu59fu0vxZ-4" value="Bedrock" style="sketch=0;points=[[0,0,0],[0.25,0,0],[0.5,0,0],[0.75,0,0],[1,0,0],[0,1,0],[0.25,1,0],[0.5,1,0],[0.75,1,0],[1,1,0],[0,0.25,0],[0,0.5,0],[0,0.75,0],[1,0.25,0],[1,0.5,0],[1,0.75,0]];outlineConnect=0;fontColor=#232F3E;fillColor=#01A88D;strokeColor=#ffffff;dashed=0;verticalLabelPosition=bottom;verticalAlign=top;align=center;html=1;fontSize=12;fontStyle=0;aspect=fixed;shape=mxgraph.aws4.resourceIcon;resIcon=mxgraph.aws4.bedrock;" vertex="1" parent="1">
          <mxGeometry x="1220" y="362" width="78" height="78" as="geometry" />
        </mxCell>
        <mxCell id="Qn9Obs42kMPu59fu0vxZ-6" value="Visualisation" style="sketch=0;points=[[0,0,0],[0.25,0,0],[0.5,0,0],[0.75,0,0],[1,0,0],[0,1,0],[0.25,1,0],[0.5,1,0],[0.75,1,0],[1,1,0],[0,0.25,0],[0,0.5,0],[0,0.75,0],[1,0.25,0],[1,0.5,0],[1,0.75,0]];outlineConnect=0;fontColor=#232F3E;fillColor=#8C4FFF;strokeColor=#ffffff;dashed=0;verticalLabelPosition=bottom;verticalAlign=top;align=center;html=1;fontSize=12;fontStyle=0;aspect=fixed;shape=mxgraph.aws4.resourceIcon;resIcon=mxgraph.aws4.quicksight;" vertex="1" parent="1">
          <mxGeometry x="1289.5" y="547" width="78" height="78" as="geometry" />
        </mxCell>
        <mxCell id="Qn9Obs42kMPu59fu0vxZ-7" value="Lambda" style="outlineConnect=0;dashed=0;verticalLabelPosition=bottom;verticalAlign=top;align=center;html=1;shape=mxgraph.aws3.lambda_function;fillColor=#F58534;gradientColor=none;" vertex="1" parent="1">
          <mxGeometry x="836" y="133" width="69" height="72" as="geometry" />
        </mxCell>
        <mxCell id="Qn9Obs42kMPu59fu0vxZ-13" value="Inference" style="sketch=0;points=[[0,0,0],[0.25,0,0],[0.5,0,0],[0.75,0,0],[1,0,0],[0,1,0],[0.25,1,0],[0.5,1,0],[0.75,1,0],[1,1,0],[0,0.25,0],[0,0.5,0],[0,0.75,0],[1,0.25,0],[1,0.5,0],[1,0.75,0]];outlineConnect=0;fontColor=#232F3E;fillColor=#01A88D;strokeColor=#ffffff;dashed=0;verticalLabelPosition=bottom;verticalAlign=top;align=center;html=1;fontSize=12;fontStyle=0;aspect=fixed;shape=mxgraph.aws4.resourceIcon;resIcon=mxgraph.aws4.sagemaker;" vertex="1" parent="1">
          <mxGeometry x="830" y="362" width="78" height="78" as="geometry" />
        </mxCell>
        <mxCell id="Qn9Obs42kMPu59fu0vxZ-14" style="edgeStyle=orthogonalEdgeStyle;rounded=0;orthogonalLoop=1;jettySize=auto;html=1;entryX=0;entryY=0.5;entryDx=0;entryDy=0;entryPerimeter=0;" edge="1" parent="1" source="Qn9Obs42kMPu59fu0vxZ-25" target="Qn9Obs42kMPu59fu0vxZ-13">
          <mxGeometry relative="1" as="geometry" />
        </mxCell>
        <mxCell id="fS7r3nwZPDTRePEi301l-5" style="edgeStyle=orthogonalEdgeStyle;rounded=0;orthogonalLoop=1;jettySize=auto;html=1;" edge="1" parent="1" source="Qn9Obs42kMPu59fu0vxZ-2" target="fS7r3nwZPDTRePEi301l-1">
          <mxGeometry relative="1" as="geometry" />
        </mxCell>
        <mxCell id="Qn9Obs42kMPu59fu0vxZ-2" value="IOT" style="sketch=0;points=[[0,0,0],[0.25,0,0],[0.5,0,0],[0.75,0,0],[1,0,0],[0,1,0],[0.25,1,0],[0.5,1,0],[0.75,1,0],[1,1,0],[0,0.25,0],[0,0.5,0],[0,0.75,0],[1,0.25,0],[1,0.5,0],[1,0.75,0]];outlineConnect=0;fontColor=#232F3E;fillColor=#7AA116;strokeColor=#ffffff;dashed=0;verticalLabelPosition=bottom;verticalAlign=top;align=center;html=1;fontSize=12;fontStyle=0;aspect=fixed;shape=mxgraph.aws4.resourceIcon;resIcon=mxgraph.aws4.iot_core;" vertex="1" parent="1">
          <mxGeometry x="390" y="130" width="78" height="78" as="geometry" />
        </mxCell>
        <mxCell id="Qn9Obs42kMPu59fu0vxZ-24" value="Data for training" style="text;html=1;align=center;verticalAlign=middle;whiteSpace=wrap;rounded=0;labelBackgroundColor=default;" vertex="1" parent="1">
          <mxGeometry x="440" y="386" width="90" height="30" as="geometry" />
        </mxCell>
        <mxCell id="Qn9Obs42kMPu59fu0vxZ-26" value="" style="edgeStyle=orthogonalEdgeStyle;rounded=0;orthogonalLoop=1;jettySize=auto;html=1;entryX=0;entryY=0.5;entryDx=0;entryDy=0;entryPerimeter=0;" edge="1" parent="1" source="Qn9Obs42kMPu59fu0vxZ-3" target="Qn9Obs42kMPu59fu0vxZ-25">
          <mxGeometry relative="1" as="geometry">
            <mxPoint x="648" y="401" as="sourcePoint" />
            <mxPoint x="810" y="401" as="targetPoint" />
          </mxGeometry>
        </mxCell>
        <mxCell id="Qn9Obs42kMPu59fu0vxZ-25" value="Model saving for inference" style="text;html=1;align=center;verticalAlign=middle;whiteSpace=wrap;rounded=0;labelBackgroundColor=default;" vertex="1" parent="1">
          <mxGeometry x="682" y="386" width="90" height="30" as="geometry" />
        </mxCell>
        <mxCell id="Qn9Obs42kMPu59fu0vxZ-27" value="Sending sensor inputs and receiving inference" style="text;html=1;align=center;verticalAlign=middle;whiteSpace=wrap;rounded=0;labelBackgroundColor=default;" vertex="1" parent="1">
          <mxGeometry x="827" y="260" width="90" height="30" as="geometry" />
        </mxCell>
        <mxCell id="Qn9Obs42kMPu59fu0vxZ-28" value="Filtering stream data" style="text;html=1;align=center;verticalAlign=middle;whiteSpace=wrap;rounded=0;labelBackgroundColor=default;" vertex="1" parent="1">
          <mxGeometry x="500" y="154" width="90" height="30" as="geometry" />
        </mxCell>
        <mxCell id="Qn9Obs42kMPu59fu0vxZ-33" value="Visualising data" style="text;html=1;align=center;verticalAlign=middle;whiteSpace=wrap;rounded=0;labelBackgroundColor=default;" vertex="1" parent="1">
          <mxGeometry x="1149.5" y="570" width="90" height="30" as="geometry" />
        </mxCell>
        <mxCell id="Qn9Obs42kMPu59fu0vxZ-34" value="1" style="ellipse;whiteSpace=wrap;html=1;aspect=fixed;strokeWidth=2;fontFamily=Tahoma;spacingBottom=4;spacingRight=2;strokeColor=#d3d3d3;" vertex="1" parent="1">
          <mxGeometry x="320" y="330" width="20" height="20" as="geometry" />
        </mxCell>
        <mxCell id="Qn9Obs42kMPu59fu0vxZ-35" value="2" style="ellipse;whiteSpace=wrap;html=1;aspect=fixed;strokeWidth=2;fontFamily=Tahoma;spacingBottom=4;spacingRight=2;strokeColor=#d3d3d3;" vertex="1" parent="1">
          <mxGeometry x="560" y="330" width="20" height="20" as="geometry" />
        </mxCell>
        <mxCell id="Qn9Obs42kMPu59fu0vxZ-37" value="3" style="ellipse;whiteSpace=wrap;html=1;aspect=fixed;strokeWidth=2;fontFamily=Tahoma;spacingBottom=4;spacingRight=2;strokeColor=#d3d3d3;labelBackgroundColor=default;" vertex="1" parent="1">
          <mxGeometry x="240" y="93" width="20" height="20" as="geometry" />
        </mxCell>
        <mxCell id="Qn9Obs42kMPu59fu0vxZ-39" value="4" style="ellipse;whiteSpace=wrap;html=1;aspect=fixed;strokeWidth=2;fontFamily=Tahoma;spacingBottom=4;spacingRight=2;strokeColor=#d3d3d3;labelBackgroundColor=default;" vertex="1" parent="1">
          <mxGeometry x="370" y="113" width="20" height="20" as="geometry" />
        </mxCell>
        <mxCell id="Qn9Obs42kMPu59fu0vxZ-40" value="6" style="ellipse;whiteSpace=wrap;html=1;aspect=fixed;strokeWidth=2;fontFamily=Tahoma;spacingBottom=4;spacingRight=2;strokeColor=#d3d3d3;labelBackgroundColor=default;" vertex="1" parent="1">
          <mxGeometry x="827" y="113" width="20" height="20" as="geometry" />
        </mxCell>
        <mxCell id="Qn9Obs42kMPu59fu0vxZ-41" value="7" style="ellipse;whiteSpace=wrap;html=1;aspect=fixed;strokeWidth=2;fontFamily=Tahoma;spacingBottom=4;spacingRight=2;strokeColor=#d3d3d3;labelBackgroundColor=default;" vertex="1" parent="1">
          <mxGeometry x="813" y="342" width="20" height="20" as="geometry" />
        </mxCell>
        <mxCell id="Qn9Obs42kMPu59fu0vxZ-43" value="8" style="ellipse;whiteSpace=wrap;html=1;aspect=fixed;strokeWidth=2;fontFamily=Tahoma;spacingBottom=4;spacingRight=2;strokeColor=#d3d3d3;labelBackgroundColor=default;" vertex="1" parent="1">
          <mxGeometry x="1190" y="342" width="20" height="20" as="geometry" />
        </mxCell>
        <mxCell id="Qn9Obs42kMPu59fu0vxZ-44" value="9" style="ellipse;whiteSpace=wrap;html=1;aspect=fixed;strokeWidth=2;fontFamily=Tahoma;spacingBottom=4;spacingRight=2;strokeColor=#d3d3d3;labelBackgroundColor=default;" vertex="1" parent="1">
          <mxGeometry x="736.5" y="530" width="20" height="20" as="geometry" />
        </mxCell>
        <mxCell id="Qn9Obs42kMPu59fu0vxZ-45" value="11" style="ellipse;whiteSpace=wrap;html=1;aspect=fixed;strokeWidth=2;fontFamily=Tahoma;spacingBottom=4;spacingRight=2;strokeColor=#d3d3d3;labelBackgroundColor=default;" vertex="1" parent="1">
          <mxGeometry x="1269.5" y="530" width="20" height="20" as="geometry" />
        </mxCell>
        <mxCell id="6SkyXPGi7nIfojy-jZ-3-1" style="edgeStyle=orthogonalEdgeStyle;rounded=0;orthogonalLoop=1;jettySize=auto;html=1;entryX=0.5;entryY=0;entryDx=0;entryDy=0;entryPerimeter=0;" edge="1" parent="1" source="Qn9Obs42kMPu59fu0vxZ-7" target="Qn9Obs42kMPu59fu0vxZ-13">
          <mxGeometry relative="1" as="geometry" />
        </mxCell>
        <mxCell id="6SkyXPGi7nIfojy-jZ-3-7" value="Model Training" style="text;html=1;align=center;verticalAlign=middle;whiteSpace=wrap;rounded=0;" vertex="1" parent="1">
          <mxGeometry x="430" y="520" width="60" height="30" as="geometry" />
        </mxCell>
        <mxCell id="6SkyXPGi7nIfojy-jZ-3-9" value="Sensor simulation" style="text;html=1;align=center;verticalAlign=middle;whiteSpace=wrap;rounded=0;" vertex="1" parent="1">
          <mxGeometry x="15" y="-40" width="60" height="30" as="geometry" />
        </mxCell>
        <mxCell id="6SkyXPGi7nIfojy-jZ-3-11" value="Sending inference to LLM" style="text;html=1;align=center;verticalAlign=middle;whiteSpace=wrap;rounded=0;labelBackgroundColor=default;" vertex="1" parent="1">
          <mxGeometry x="1007" y="260" width="90" height="30" as="geometry" />
        </mxCell>
        <mxCell id="fS7r3nwZPDTRePEi301l-4" style="edgeStyle=orthogonalEdgeStyle;rounded=0;orthogonalLoop=1;jettySize=auto;html=1;" edge="1" parent="1" source="fS7r3nwZPDTRePEi301l-6" target="Qn9Obs42kMPu59fu0vxZ-7">
          <mxGeometry relative="1" as="geometry" />
        </mxCell>
        <mxCell id="fS7r3nwZPDTRePEi301l-1" value="IOT Rule" style="sketch=0;outlineConnect=0;fontColor=#232F3E;gradientColor=none;fillColor=#7AA116;strokeColor=none;dashed=0;verticalLabelPosition=bottom;verticalAlign=top;align=center;html=1;fontSize=12;fontStyle=0;aspect=fixed;pointerEvents=1;shape=mxgraph.aws4.rule;" vertex="1" parent="1">
          <mxGeometry x="634" y="130" width="46" height="78" as="geometry" />
        </mxCell>
        <mxCell id="fS7r3nwZPDTRePEi301l-7" value="" style="edgeStyle=orthogonalEdgeStyle;rounded=0;orthogonalLoop=1;jettySize=auto;html=1;" edge="1" parent="1" source="fS7r3nwZPDTRePEi301l-1" target="fS7r3nwZPDTRePEi301l-6">
          <mxGeometry relative="1" as="geometry">
            <mxPoint x="680" y="169" as="sourcePoint" />
            <mxPoint x="836" y="169" as="targetPoint" />
          </mxGeometry>
        </mxCell>
        <mxCell id="fS7r3nwZPDTRePEi301l-6" value="Transfer of stream data&amp;nbsp;" style="text;html=1;align=center;verticalAlign=middle;whiteSpace=wrap;rounded=0;labelBackgroundColor=default;" vertex="1" parent="1">
          <mxGeometry x="710" y="154" width="90" height="30" as="geometry" />
        </mxCell>
        <mxCell id="fS7r3nwZPDTRePEi301l-8" value="5" style="ellipse;whiteSpace=wrap;html=1;aspect=fixed;strokeWidth=2;fontFamily=Tahoma;spacingBottom=4;spacingRight=2;strokeColor=#d3d3d3;labelBackgroundColor=default;" vertex="1" parent="1">
          <mxGeometry x="610" y="113" width="20" height="20" as="geometry" />
        </mxCell>
        <mxCell id="LH71JOIaerTPCYiLXvX7-5" style="edgeStyle=orthogonalEdgeStyle;rounded=0;orthogonalLoop=1;jettySize=auto;html=1;entryX=0;entryY=0.5;entryDx=0;entryDy=0;entryPerimeter=0;" edge="1" parent="1" source="Qn9Obs42kMPu59fu0vxZ-29" target="Qn9Obs42kMPu59fu0vxZ-2">
          <mxGeometry relative="1" as="geometry" />
        </mxCell>
        <mxCell id="LH71JOIaerTPCYiLXvX7-8" value="" style="rounded=0;whiteSpace=wrap;html=1;fillColor=light-dark(#B9E0A5,#330000);" vertex="1" parent="1">
          <mxGeometry x="-140" y="113" width="370" height="130" as="geometry" />
        </mxCell>
        <mxCell id="LH71JOIaerTPCYiLXvX7-1" value="Event Scheduler" style="sketch=0;outlineConnect=0;fontColor=#232F3E;gradientColor=none;fillColor=#E7157B;strokeColor=none;dashed=0;verticalLabelPosition=bottom;verticalAlign=top;align=center;html=1;fontSize=12;fontStyle=0;aspect=fixed;pointerEvents=1;shape=mxgraph.aws4.eventbridge_scheduler;" vertex="1" parent="1">
          <mxGeometry x="-110" y="130" width="78" height="78" as="geometry" />
        </mxCell>
        <mxCell id="LH71JOIaerTPCYiLXvX7-2" value="Lambda" style="outlineConnect=0;dashed=0;verticalLabelPosition=bottom;verticalAlign=top;align=center;html=1;shape=mxgraph.aws3.lambda_function;fillColor=#F58534;gradientColor=none;" vertex="1" parent="1">
          <mxGeometry x="140" y="133" width="69" height="72" as="geometry" />
        </mxCell>
        <mxCell id="LH71JOIaerTPCYiLXvX7-4" style="edgeStyle=orthogonalEdgeStyle;rounded=0;orthogonalLoop=1;jettySize=auto;html=1;" edge="1" parent="1" source="LH71JOIaerTPCYiLXvX7-1" target="LH71JOIaerTPCYiLXvX7-2">
          <mxGeometry relative="1" as="geometry" />
        </mxCell>
        <mxCell id="LH71JOIaerTPCYiLXvX7-9" value="" style="edgeStyle=orthogonalEdgeStyle;rounded=0;orthogonalLoop=1;jettySize=auto;html=1;entryX=0;entryY=0.5;entryDx=0;entryDy=0;entryPerimeter=0;" edge="1" parent="1" source="LH71JOIaerTPCYiLXvX7-2" target="Qn9Obs42kMPu59fu0vxZ-29">
          <mxGeometry relative="1" as="geometry">
            <mxPoint x="209" y="169" as="sourcePoint" />
            <mxPoint x="390" y="169" as="targetPoint" />
          </mxGeometry>
        </mxCell>
        <mxCell id="Qn9Obs42kMPu59fu0vxZ-29" value="Sending streaming sensor data&amp;nbsp;" style="text;html=1;align=center;verticalAlign=middle;whiteSpace=wrap;rounded=0;labelBackgroundColor=default;" vertex="1" parent="1">
          <mxGeometry x="230" y="154" width="110" height="30" as="geometry" />
        </mxCell>
        <mxCell id="LH71JOIaerTPCYiLXvX7-10" value="Schedule lambda to run" style="text;html=1;align=center;verticalAlign=middle;whiteSpace=wrap;rounded=0;labelBackgroundColor=default;" vertex="1" parent="1">
          <mxGeometry y="160" width="110" height="30" as="geometry" />
        </mxCell>
        <mxCell id="8oHRgMrn5TeSPVDoztik-4" style="rounded=0;orthogonalLoop=1;jettySize=auto;html=1;fontSize=12;startSize=8;endSize=8;edgeStyle=orthogonalEdgeStyle;entryX=1;entryY=0.5;entryDx=0;entryDy=0;entryPerimeter=0;" edge="1" parent="1" source="LH71JOIaerTPCYiLXvX7-11" target="LH71JOIaerTPCYiLXvX7-12">
          <mxGeometry relative="1" as="geometry">
            <mxPoint x="910" y="760" as="targetPoint" />
            <Array as="points">
              <mxPoint x="1063" y="746" />
            </Array>
          </mxGeometry>
        </mxCell>
        <mxCell id="LH71JOIaerTPCYiLXvX7-11" value="Inference Dara" style="sketch=0;points=[[0,0,0],[0.25,0,0],[0.5,0,0],[0.75,0,0],[1,0,0],[0,1,0],[0.25,1,0],[0.5,1,0],[0.75,1,0],[1,1,0],[0,0.25,0],[0,0.5,0],[0,0.75,0],[1,0.25,0],[1,0.5,0],[1,0.75,0]];outlineConnect=0;fontColor=#232F3E;fillColor=#7AA116;strokeColor=#ffffff;dashed=0;verticalLabelPosition=bottom;verticalAlign=top;align=center;html=1;fontSize=12;fontStyle=0;aspect=fixed;shape=mxgraph.aws4.resourceIcon;resIcon=mxgraph.aws4.s3;" vertex="1" parent="1">
          <mxGeometry x="1023.5" y="546" width="78" height="78" as="geometry" />
        </mxCell>
        <mxCell id="8oHRgMrn5TeSPVDoztik-6" style="edgeStyle=orthogonalEdgeStyle;rounded=0;orthogonalLoop=1;jettySize=auto;html=1;entryX=0;entryY=0.5;entryDx=0;entryDy=0;fontSize=12;startSize=8;endSize=8;" edge="1" parent="1" source="LH71JOIaerTPCYiLXvX7-12" target="6SkyXPGi7nIfojy-jZ-3-6">
          <mxGeometry relative="1" as="geometry">
            <Array as="points">
              <mxPoint x="150" y="746" />
              <mxPoint x="150" y="410" />
            </Array>
          </mxGeometry>
        </mxCell>
        <mxCell id="LH71JOIaerTPCYiLXvX7-12" value="" style="outlineConnect=0;dashed=0;verticalLabelPosition=bottom;verticalAlign=top;align=center;html=1;shape=mxgraph.aws3.lambda_function;fillColor=#F58534;gradientColor=none;" vertex="1" parent="1">
          <mxGeometry x="610" y="710" width="69" height="72" as="geometry" />
        </mxCell>
        <mxCell id="LH71JOIaerTPCYiLXvX7-15" style="edgeStyle=orthogonalEdgeStyle;rounded=0;orthogonalLoop=1;jettySize=auto;html=1;entryX=0;entryY=0.5;entryDx=0;entryDy=0;entryPerimeter=0;" edge="1" parent="1" source="LH71JOIaerTPCYiLXvX7-11" target="Qn9Obs42kMPu59fu0vxZ-6">
          <mxGeometry relative="1" as="geometry" />
        </mxCell>
        <mxCell id="Qn9Obs42kMPu59fu0vxZ-32" value="Storing inference from both sagemaker and bedrock" style="text;html=1;align=center;verticalAlign=middle;whiteSpace=wrap;rounded=0;labelBackgroundColor=default;" vertex="1" parent="1">
          <mxGeometry x="905" y="490" width="90" height="30" as="geometry" />
        </mxCell>
        <mxCell id="LH71JOIaerTPCYiLXvX7-17" value="10" style="ellipse;whiteSpace=wrap;html=1;aspect=fixed;strokeWidth=2;fontFamily=Tahoma;spacingBottom=4;spacingRight=2;strokeColor=#d3d3d3;labelBackgroundColor=default;" vertex="1" parent="1">
          <mxGeometry x="989.5" y="530" width="20" height="20" as="geometry" />
        </mxCell>
        <mxCell id="25Qr6BSDSG5VhD34NWBC-3" value="" style="edgeStyle=orthogonalEdgeStyle;rounded=0;orthogonalLoop=1;jettySize=auto;html=1;entryX=0;entryY=0.5;entryDx=0;entryDy=0;entryPerimeter=0;" edge="1" parent="1" source="Qn9Obs42kMPu59fu0vxZ-13" target="25Qr6BSDSG5VhD34NWBC-1">
          <mxGeometry relative="1" as="geometry">
            <mxPoint x="908" y="401" as="sourcePoint" />
            <mxPoint x="1220" y="401" as="targetPoint" />
          </mxGeometry>
        </mxCell>
        <mxCell id="25Qr6BSDSG5VhD34NWBC-4" style="edgeStyle=orthogonalEdgeStyle;rounded=0;orthogonalLoop=1;jettySize=auto;html=1;" edge="1" parent="1" source="25Qr6BSDSG5VhD34NWBC-1" target="LH71JOIaerTPCYiLXvX7-11">
          <mxGeometry relative="1" as="geometry" />
        </mxCell>
        <mxCell id="25Qr6BSDSG5VhD34NWBC-1" value="" style="outlineConnect=0;dashed=0;verticalLabelPosition=bottom;verticalAlign=top;align=center;html=1;shape=mxgraph.aws3.lambda_function;fillColor=#F58534;gradientColor=none;" vertex="1" parent="1">
          <mxGeometry x="1028" y="365" width="69" height="72" as="geometry" />
        </mxCell>
        <mxCell id="8oHRgMrn5TeSPVDoztik-1" value="" style="endArrow=classic;startArrow=classic;html=1;rounded=0;fontSize=12;startSize=8;endSize=8;curved=1;entryX=0;entryY=0.5;entryDx=0;entryDy=0;entryPerimeter=0;exitX=1;exitY=0.5;exitDx=0;exitDy=0;exitPerimeter=0;" edge="1" parent="1" source="25Qr6BSDSG5VhD34NWBC-1" target="Qn9Obs42kMPu59fu0vxZ-4">
          <mxGeometry width="50" height="50" relative="1" as="geometry">
            <mxPoint x="1110" y="401" as="sourcePoint" />
            <mxPoint x="1190" y="400" as="targetPoint" />
          </mxGeometry>
        </mxCell>
      </root>
    </mxGraphModel>
  </diagram>
</mxfile>
